{"title":"The Challenge - Battle Of The Seasons 2012 S23E07 WEB-DL","uid":7808320,"size":655433265,"categoryP":"video","categoryS":"tv_shows","magnet":"?xt=urn:btih:2143b9d075de347281b2b541bb96f3bd6e5b2f35&amp;dn=The+Challenge+-+Battle+Of+The+Seasons+2012+S23E07+WEB-DL&amp;tr=udp%3A%2F%2Ftracker.openbittorrent.com%3A80&amp;tr=udp%3A%2F%2Fopen.demonii.com%3A1337&amp;tr=udp%3A%2F%2Ftracker.coppersurfer.tk%3A6969&amp;tr=udp%3A%2F%2Fexodus.desync.com%3A6969","seeders":1,"leechers":0,"uploader":"zed1234","files":1,"time":1352459650,"description":"I Do Not Like You Sam I Am\nThe San Diego team implodes after Frank &amp; Zach viciously berate Sam for her poor performance in the challenge. And another surprise romance blossoms in the house, but the crush may be one-sided.\nThe remaining teams are tested during a physically exhausting challenge, and the pressure of the game cracks San Diego's unity.\n\nGeneral\nFormat                                   : Matroska\nFile size                                : 625 MiB\nDuration                                 : 40mn 48s\nOverall bit rate                         : 2 141 Kbps\nVideo\nFormat                                   : AVC\nFormat/Info                              : Advanced Video Codec\nWidth                                    : 768 pixels\nHeight                                   : 432 pixels\nDisplay aspect ratio                     : 16:9\nFrame rate                               : 29.970 fps\nStream size                              : 557 MiB (89%)\n\nAudio\nBit rate                                 : 192 Kbps\nChannel(s)                               : 2 channels\nSampling rate                            : 44.1 KHz\nCompression mode                         : Lossy\nStream size                              : 56.0 MiB (9%)\n\n\n","torrent":{"xt":"urn:btih:2143b9d075de347281b2b541bb96f3bd6e5b2f35","amp;dn":"The+Challenge+-+Battle+Of+The+Seasons+2012+S23E07+WEB-DL","amp;tr":["udp%3A%2F%2Ftracker.openbittorrent.com%3A80","udp%3A%2F%2Fopen.demonii.com%3A1337","udp%3A%2F%2Ftracker.coppersurfer.tk%3A6969","udp%3A%2F%2Fexodus.desync.com%3A6969"],"infoHash":"2143b9d075de347281b2b541bb96f3bd6e5b2f35","infoHashBuffer":{"type":"Buffer","data":[33,67,185,208,117,222,52,114,129,178,181,65,187,150,243,189,110,91,47,53]},"announce":[],"urlList":[]}}